<?xml version="1.0" encoding="UTF-8"?><svg id="Layer_1" xmlns="http://www.w3.org/2000/svg" viewBox="163 138 656 174"><g><circle cx="252" cy="228" r="77.5" fill="none"/><circle cx="252" cy="228" r="69.5" fill="none"/><circle cx="252.5" cy="228.5" r="60" fill="none"/><circle cx="195.5" cy="188.5" r="3" fill="#fff" stroke="#000" stroke-miterlimit="10"/><circle cx="211.5" cy="272.5" r="3" fill="#fff" stroke="#000" stroke-miterlimit="10"/><circle cx="211.5" cy="284.5" r="3" fill="#fff" stroke="#000" stroke-miterlimit="10"/><circle cx="283.5" cy="177.5" r="3" fill="#fff" stroke="#000" stroke-miterlimit="10"/><circle cx="283.5" cy="165.5" r="3" fill="#fff" stroke="#000" stroke-miterlimit="10"/><circle cx="303.5" cy="196.5" r="3" fill="#fff" stroke="#000" stroke-miterlimit="10"/><circle cx="302.5" cy="180.5" r="3" fill="#fff" stroke="#000" stroke-miterlimit="10"/><circle cx="232.5" cy="285.5" r="3" fill="#fff" stroke="#000" stroke-miterlimit="10"/><circle cx="257.5" cy="297.5" r="3" fill="#fff" stroke="#000" stroke-miterlimit="10"/><circle cx="232.5" cy="295.5" r="3" fill="#fff" stroke="#000" stroke-miterlimit="10"/><circle cx="197.5" cy="204.5" r="3" fill="#0b2b8d" stroke="#0b2b8d" stroke-miterlimit="10"/><circle cx="258.5" cy="288.5" r="3" fill="#0b2b8d" stroke="#0b2b8d" stroke-miterlimit="10"/><circle cx="232.5" cy="285.5" r="3" fill="#0b2b8d" stroke="#0b2b8d" stroke-miterlimit="10"/><circle cx="211.5" cy="284.5" r="3" fill="#0b2b8d" stroke="#0b2b8d" stroke-miterlimit="10"/><circle cx="211.5" cy="272.5" r="3" fill="#0b2b8d" stroke="#0b2b8d" stroke-miterlimit="10"/><circle cx="232.5" cy="295.5" r="3" fill="#0b2b8d" stroke="#0b2b8d" stroke-miterlimit="10"/><circle cx="257.5" cy="297.5" r="3" fill="#0b2b8d" stroke="#0b2b8d" stroke-miterlimit="10"/><circle cx="312.5" cy="223.5" r="3" fill="#0b2b8d" stroke="#0b2b8d" stroke-miterlimit="10"/><circle cx="317.5" cy="203.5" r="3" fill="#0b2b8d" stroke="#0b2b8d" stroke-miterlimit="10"/><circle cx="192.5" cy="228.5" r="3" fill="#0b2b8d"/><circle cx="197.5" cy="252.5" r="3" fill="#0b2b8d" stroke="#0b2b8d" stroke-miterlimit="10"/><circle cx="193.5" cy="266.5" r="3" fill="#fff" stroke="#000" stroke-miterlimit="10"/><circle cx="282" cy="281" r="1.5" fill="#0b2b8d" stroke="#0b2b8d" stroke-miterlimit="10"/><circle cx="308" cy="270" r="1.5" fill="#0b2b8d" stroke="#0b2b8d" stroke-miterlimit="10"/><circle cx="277" cy="293" r="1.5" fill="#0b2b8d" stroke="#0b2b8d" stroke-miterlimit="10"/><circle cx="298" cy="268" r="1.5" fill="#0b2b8d" stroke="#0b2b8d" stroke-miterlimit="10"/><circle cx="295" cy="283" r="1.5" fill="#0b2b8d" stroke="#0b2b8d" stroke-miterlimit="10"/><circle cx="309" cy="249" r="1.5" fill="#0b2b8d" stroke="#0b2b8d" stroke-miterlimit="10"/><circle cx="322" cy="231" r="1.5" fill="#0b2b8d" stroke="#0b2b8d" stroke-miterlimit="10"/><circle cx="317" cy="252" r="1.5" fill="#0b2b8d" stroke="#0b2b8d" stroke-miterlimit="10"/><circle cx="258.5" cy="169.5" r="3" fill="#0b2b8d" stroke="#0b2b8d" stroke-miterlimit="10"/><circle cx="257.5" cy="159.5" r="3" fill="#fff" stroke="#000" stroke-miterlimit="10"/><circle cx="211.5" cy="185.5" r="3" fill="#0b2b8d" stroke="#0b2b8d" stroke-miterlimit="10"/><circle cx="211.5" cy="171.5" r="3" fill="#fff" stroke="#000" stroke-miterlimit="10"/><circle cx="182.5" cy="216.5" r="3" fill="#fff" stroke="#000" stroke-miterlimit="10"/><circle cx="184.5" cy="243.5" r="3" fill="#0b2b8d" stroke="#0b2b8d" stroke-miterlimit="10"/><circle cx="232.5" cy="172.5" r="3" fill="#0b2b8d" stroke="#0b2b8d" stroke-miterlimit="10"/><circle cx="232.5" cy="161.5" r="3" fill="#fff" stroke="#000" stroke-miterlimit="10"/><polygon points="310.443 207.5 307.557 207.5 306.113 210 307.557 212.5 310.443 212.5 311.887 210 310.443 207.5" fill="#f89100" stroke="#f89100" stroke-miterlimit="10"/><polygon points="312.443 188.5 309.557 188.5 308.113 191 309.557 193.5 312.443 193.5 313.887 191 312.443 188.5" fill="#f89100" stroke="#f89100" stroke-miterlimit="10"/><polygon points="321.443 215.5 318.557 215.5 317.113 218 318.557 220.5 321.443 220.5 322.887 218 321.443 215.5" fill="#f89100" stroke="#f89100" stroke-miterlimit="10"/><polygon points="246.061 166.5 243.174 166.5 241.731 169 243.174 171.5 246.061 171.5 247.505 169 246.061 166.5" fill="#f89100" stroke="#f89100" stroke-miterlimit="10"/><polygon points="246.061 156.5 243.174 156.5 241.731 159 243.174 161.5 246.061 161.5 247.505 159 246.061 156.5" fill="#f89100" stroke="#f89100" stroke-miterlimit="10"/><polygon points="205.061 260.5 202.174 260.5 200.731 263 202.174 265.5 205.061 265.5 206.505 263 205.061 260.5" fill="#f89100" stroke="#f89100" stroke-miterlimit="10"/><polygon points="202.061 273.5 199.174 273.5 197.731 276 199.174 278.5 202.061 278.5 203.505 276 202.061 273.5" fill="#f89100" stroke="#f89100" stroke-miterlimit="10"/><polygon points="205.061 191.5 202.174 191.5 200.731 194 202.174 196.5 205.061 196.5 206.505 194 205.061 191.5" fill="#f89100" stroke="#f89100" stroke-miterlimit="10"/><polygon points="203.061 177.5 200.174 177.5 198.731 180 200.174 182.5 203.061 182.5 204.505 180 203.061 177.5" fill="#f89100" stroke="#f89100" stroke-miterlimit="10"/><polygon points="189.061 198.5 186.174 198.5 184.731 201 186.174 203.5 189.061 203.5 190.505 201 189.061 198.5" fill="#f89100" stroke="#f89100" stroke-miterlimit="10"/><polygon points="184.061 227.5 181.174 227.5 179.731 230 181.174 232.5 184.061 232.5 185.505 230 184.061 227.5" fill="#f89100" stroke="#f89100" stroke-miterlimit="10"/><polygon points="176.061 214.5 173.174 214.5 171.731 217 173.174 219.5 176.061 219.5 177.505 217 176.061 214.5" fill="#f89100" stroke="#f89100" stroke-miterlimit="10"/><polygon points="176.061 241.5 173.174 241.5 171.731 244 173.174 246.5 176.061 246.5 177.505 244 176.061 241.5" fill="#f89100" stroke="#f89100" stroke-miterlimit="10"/><polygon points="187.061 267.5 184.174 267.5 182.731 270 184.174 272.5 187.061 272.5 188.505 270 187.061 267.5" fill="#f89100" stroke="#f89100" stroke-miterlimit="10"/><polygon points="202.061 285.5 199.174 285.5 197.731 288 199.174 290.5 202.061 290.5 203.505 288 202.061 285.5" fill="#f89100" stroke="#f89100" stroke-miterlimit="10"/><polygon points="223.061 298.5 220.174 298.5 218.731 301 220.174 303.5 223.061 303.5 224.505 301 223.061 298.5" fill="#f89100" stroke="#f89100" stroke-miterlimit="10"/><polygon points="184.061 190.5 181.174 190.5 179.731 193 181.174 195.5 184.061 195.5 185.505 193 184.061 190.5" fill="#f89100" stroke="#f89100" stroke-miterlimit="10"/><polygon points="196.061 171.5 193.174 171.5 191.731 174 193.174 176.5 196.061 176.5 197.505 174 196.061 171.5" fill="#f89100" stroke="#f89100" stroke-miterlimit="10"/><polygon points="216.061 156.5 213.174 156.5 211.731 159 213.174 161.5 216.061 161.5 217.505 159 216.061 156.5" fill="#f89100" stroke="#f89100" stroke-miterlimit="10"/><polygon points="243.061 147.5 240.174 147.5 238.731 150 240.174 152.5 243.061 152.5 244.505 150 243.061 147.5" fill="#f89100" stroke="#f89100" stroke-miterlimit="10"/><polygon points="270.061 149.5 267.174 149.5 265.731 152 267.174 154.5 270.061 154.5 271.505 152 270.061 149.5" fill="#f89100" stroke="#f89100" stroke-miterlimit="10"/><polygon points="314.061 177.5 311.174 177.5 309.731 180 311.174 182.5 314.061 182.5 315.505 180 314.061 177.5" fill="#f89100" stroke="#f89100" stroke-miterlimit="10"/><polygon points="295.061 160.5 292.174 160.5 290.731 163 292.174 165.5 295.061 165.5 296.505 163 295.061 160.5" fill="#f89100" stroke="#f89100" stroke-miterlimit="10"/><polygon points="327.061 204.5 324.174 204.5 322.731 207 324.174 209.5 327.061 209.5 328.505 207 327.061 204.5" fill="#f89100" stroke="#f89100" stroke-miterlimit="10"/><polygon points="189.061 253.5 186.174 253.5 184.731 256 186.174 258.5 189.061 258.5 190.505 256 189.061 253.5" fill="#f89100" stroke="#f89100" stroke-miterlimit="10"/><polygon points="273.155 284.434 271.385 284.434 270.5 285.967 271.385 287.5 273.155 287.5 274.04 285.967 273.155 284.434" fill="#f89100" stroke="#f89100" stroke-miterlimit="10"/><polygon points="269.155 294.434 267.385 294.434 266.5 295.967 267.385 297.5 269.155 297.5 270.04 295.967 269.155 294.434" fill="#f89100" stroke="#f89100" stroke-miterlimit="10"/><polygon points="291.155 273.434 289.385 273.434 288.5 274.967 289.385 276.5 291.155 276.5 292.04 274.967 291.155 273.434" fill="#f89100" stroke="#f89100" stroke-miterlimit="10"/><polygon points="303.155 275.434 301.385 275.434 300.5 276.967 301.385 278.5 303.155 278.5 304.04 276.967 303.155 275.434" fill="#f89100" stroke="#f89100" stroke-miterlimit="10"/><polygon points="287.155 287.434 285.385 287.434 284.5 288.967 285.385 290.5 287.155 290.5 288.04 288.967 287.155 287.434" fill="#f89100" stroke="#f89100" stroke-miterlimit="10"/><polygon points="305.155 257.434 303.385 257.434 302.5 258.967 303.385 260.5 305.155 260.5 306.04 258.967 305.155 257.434" fill="#f89100" stroke="#f89100" stroke-miterlimit="10"/><polygon points="314.155 260.434 312.385 260.434 311.5 261.967 312.385 263.5 314.155 263.5 315.04 261.967 314.155 260.434" fill="#f89100" stroke="#f89100" stroke-miterlimit="10"/><polygon points="313.155 237.434 311.385 237.434 310.5 238.967 311.385 240.5 313.155 240.5 314.04 238.967 313.155 237.434" fill="#f89100" stroke="#f89100" stroke-miterlimit="10"/><polygon points="321.155 240.434 319.385 240.434 318.5 241.967 319.385 243.5 321.155 243.5 322.04 241.967 321.155 240.434" fill="#f89100" stroke="#f89100" stroke-miterlimit="10"/><polygon points="296.061 183.5 293.174 183.5 291.731 186 293.174 188.5 296.061 188.5 297.505 186 296.061 183.5" fill="#f89100" stroke="#f89100" stroke-miterlimit="10"/><polygon points="295.061 169.5 292.174 169.5 290.731 172 292.174 174.5 295.061 174.5 296.505 172 295.061 169.5" fill="#f89100" stroke="#f89100" stroke-miterlimit="10"/><polygon points="195.061 213.5 192.174 213.5 190.731 216 192.174 218.5 195.061 218.5 196.505 216 195.061 213.5" fill="#f89100" stroke="#f89100" stroke-miterlimit="10"/><polygon points="274.061 169.5 271.174 169.5 269.731 172 271.174 174.5 274.061 174.5 275.505 172 274.061 169.5" fill="#f89100" stroke="#f89100" stroke-miterlimit="10"/><polygon points="272.061 159.5 269.174 159.5 267.731 162 269.174 164.5 272.061 164.5 273.505 162 272.061 159.5" fill="#f89100" stroke="#f89100" stroke-miterlimit="10"/><polygon points="222.061 277.5 219.174 277.5 217.731 280 219.174 282.5 222.061 282.5 223.505 280 222.061 277.5" fill="#f89100" stroke="#f89100" stroke-miterlimit="10"/><polygon points="223.061 288.5 220.174 288.5 218.731 291 220.174 293.5 223.061 293.5 224.505 291 223.061 288.5" fill="#f89100" stroke="#f89100" stroke-miterlimit="10"/><polygon points="195.061 238.5 192.174 238.5 190.731 241 192.174 243.5 195.061 243.5 196.505 241 195.061 238.5" fill="#f89100" stroke="#f89100" stroke-miterlimit="10"/><polygon points="246.061 285.5 243.174 285.5 241.731 288 243.174 290.5 246.061 290.5 247.505 288 246.061 285.5" fill="#f89100" stroke="#f89100" stroke-miterlimit="10"/><polygon points="246.061 295.5 243.174 295.5 241.731 298 243.174 300.5 246.061 300.5 247.505 298 246.061 295.5" fill="#f89100" stroke="#f89100" stroke-miterlimit="10"/><polygon points="222.061 175.5 219.174 175.5 217.731 178 219.174 180.5 222.061 180.5 223.505 178 222.061 175.5" fill="#f89100" stroke="#f89100" stroke-miterlimit="10"/><polygon points="222.061 163.5 219.174 163.5 217.731 166 219.174 168.5 222.061 168.5 223.505 166 222.061 163.5" fill="#f89100" stroke="#f89100" stroke-miterlimit="10"/><circle cx="193.5" cy="266.5" r="3" fill="#0b2b8d" stroke="#0b2b8d" stroke-miterlimit="10"/><circle cx="182.5" cy="216.5" r="3" fill="#0b2b8d" stroke="#0b2b8d" stroke-miterlimit="10"/><circle cx="195.5" cy="188.5" r="3" fill="#0b2b8d" stroke="#0b2b8d" stroke-miterlimit="10"/><circle cx="211.5" cy="171.5" r="3" fill="#0b2b8d" stroke="#0b2b8d" stroke-miterlimit="10"/><circle cx="232.5" cy="161.5" r="3" fill="#0b2b8d" stroke="#0b2b8d" stroke-miterlimit="10"/><circle cx="257.5" cy="159.5" r="3" fill="#0b2b8d" stroke="#0b2b8d" stroke-miterlimit="10"/><circle cx="283.5" cy="165.5" r="3" fill="#0b2b8d" stroke="#0b2b8d" stroke-miterlimit="10"/><circle cx="283.5" cy="177.5" r="3" fill="#0b2b8d" stroke="#0b2b8d" stroke-miterlimit="10"/><circle cx="303.5" cy="196.5" r="3" fill="#0b2b8d" stroke="#0b2b8d" stroke-miterlimit="10"/><circle cx="177.5" cy="204.5" r="3" fill="#0b2b8d" stroke="#0b2b8d" stroke-miterlimit="10"/><circle cx="174.5" cy="230.5" r="3" fill="#0b2b8d" stroke="#0b2b8d" stroke-miterlimit="10"/><circle cx="180.5" cy="258.5" r="3" fill="#0b2b8d" stroke="#0b2b8d" stroke-miterlimit="10"/><circle cx="191.5" cy="279.5" r="3" fill="#0b2b8d" stroke="#0b2b8d" stroke-miterlimit="10"/><circle cx="211.5" cy="295.5" r="3" fill="#0b2b8d" stroke="#0b2b8d" stroke-miterlimit="10"/><circle cx="204.5" cy="165.5" r="3" fill="#0b2b8d" stroke="#0b2b8d" stroke-miterlimit="10"/><circle cx="227.5" cy="153.5" r="3" fill="#0b2b8d" stroke="#0b2b8d" stroke-miterlimit="10"/><circle cx="255.5" cy="149.5" r="3" fill="#0b2b8d" stroke="#0b2b8d" stroke-miterlimit="10"/><circle cx="282.5" cy="156.5" r="3" fill="#0b2b8d" stroke="#0b2b8d" stroke-miterlimit="10"/><circle cx="304.5" cy="169.5" r="3" fill="#0b2b8d" stroke="#0b2b8d" stroke-miterlimit="10"/><circle cx="320.5" cy="191.5" r="3" fill="#0b2b8d" stroke="#0b2b8d" stroke-miterlimit="10"/><circle cx="189.5" cy="183.5" r="3" fill="#0b2b8d" stroke="#0b2b8d" stroke-miterlimit="10"/><circle cx="302.5" cy="180.5" r="3" fill="#0b2b8d" stroke="#0b2b8d" stroke-miterlimit="10"/><path d="M228.868,257.223v-66.65h24.561c9.082,0,16.373,3.215,21.875,9.644,5.501,6.429,8.252,14.364,8.252,23.804s-2.832,17.334-8.496,23.682-13.77,9.521-24.316,9.521h-21.875Zm12.354-9.814h10.01c5.371,0,9.928-2.018,13.672-6.055,3.743-4.036,5.615-10.042,5.615-18.018,0-6.51-1.636-12.02-4.907-16.528s-7.593-6.763-12.964-6.763h-11.426v47.363Z" fill="#0b2b8d" stroke="#0b2b8d" stroke-miterlimit="10"/></g><g><path d="M348.167,255.223v-66.65h20.26c7.492,0,13.507,3.215,18.045,9.645,4.537,6.429,6.807,14.363,6.807,23.803s-2.336,17.334-7.008,23.682c-4.673,6.348-11.358,9.521-20.059,9.521h-18.045Zm10.19-9.814h8.257c4.431,0,8.189-2.018,11.278-6.055,3.087-4.035,4.632-10.041,4.632-18.018,0-6.51-1.35-12.02-4.048-16.527-2.699-4.509-6.264-6.764-10.694-6.764h-9.425v47.363Z" fill="#0b2b8d" stroke="#0b2b8d" stroke-miterlimit="10"/><path d="M438.189,255.223h-35.727v-66.65h35.364v9.912h-25.456v18.066h20.461v9.668h-20.461v18.652h25.818v10.352Z" fill="#0b2b8d" stroke="#0b2b8d" stroke-miterlimit="10"/><path d="M456.917,255.223h-10.19v-66.65h34.76v10.303h-24.569v18.213h19.334v10.01h-19.334v28.125Z" fill="#0b2b8d" stroke="#0b2b8d" stroke-miterlimit="10"/><path d="M531.473,255.223h-10.473l-8.539-27.393h-13.936v27.393h-9.908v-66.65h23.844c6.633,0,11.506,1.815,14.621,5.445,3.115,3.629,4.672,8.324,4.672,14.086,0,8.562-3.303,14.453-9.908,17.676l9.627,29.443Zm-32.947-37.012h12.324c3.57,0,6.229-.91,7.975-2.734,1.746-1.822,2.619-4.328,2.619-7.52,0-2.93-.859-5.297-2.578-7.104s-4.123-2.711-7.209-2.711h-13.131v20.068Z" fill="#0b2b8d" stroke="#0b2b8d" stroke-miterlimit="10"/><path d="M551.53,255.223h-9.908v-66.65h9.908v66.65Z" fill="#0b2b8d" stroke="#0b2b8d" stroke-miterlimit="10"/><path d="M597.447,255.223h-33.833v-66.65h10.432v55.762h23.401v10.889Z" fill="#0b2b8d" stroke="#0b2b8d" stroke-miterlimit="10"/><path d="M640.464,255.223h-35.727v-66.65h35.363v9.912h-25.455v18.066h20.461v9.668h-20.461v18.652h25.818v10.352Z" fill="#0b2b8d" stroke="#0b2b8d" stroke-miterlimit="10"/><path d="M699.065,255.223h-14.014l-14.746-26.27-15.625,26.27h-11.182l21.094-34.717-18.115-31.934h13.965l12.305,22.168,13.037-22.168h11.23l-18.555,30.42,20.605,36.23Z" fill="#0b2b8d" stroke="#0b2b8d" stroke-miterlimit="10"/><path d="M741.887,232.078l11.133,1.221c-.717,6.674-3.296,12.167-7.739,16.48-4.443,4.312-10.278,6.469-17.505,6.469-6.088,0-11.027-1.529-14.819-4.59-3.793-3.059-6.714-7.209-8.765-12.451-2.051-5.24-3.076-11.018-3.076-17.334,0-10.156,2.408-18.416,7.227-24.779,4.817-6.364,11.441-9.547,19.873-9.547,6.607,0,12.109,2.035,16.504,6.104,4.395,4.07,7.161,9.896,8.301,17.48l-11.133,1.172c-2.051-10.059-6.576-15.088-13.574-15.088-4.492,0-7.983,2.092-10.474,6.275-2.49,4.183-3.735,10.246-3.735,18.188,0,8.074,1.334,14.169,4.004,18.287,2.669,4.117,6.201,6.176,10.596,6.176,3.516,0,6.51-1.383,8.984-4.15,2.474-2.766,3.873-6.07,4.199-9.912Z" fill="#f89100" stroke="#f89100" stroke-miterlimit="10"/><path d="M811.32,255.223h-14.014l-14.746-26.27-15.625,26.27h-11.182l21.094-34.717-18.115-31.934h13.965l12.305,22.168,13.037-22.168h11.23l-18.555,30.42,20.605,36.23Z" fill="#f89100" stroke="#f89100" stroke-miterlimit="10"/></g></svg>